<svg xmlns="http://www.w3.org/2000/svg" width="185.859" height="65.005" viewBox="0 0 185.859 65.005">
  <g id="Сгруппировать_2569" data-name="Сгруппировать 2569" transform="translate(-68.459 -64.35)">
    <g id="Сгруппировать_2570" data-name="Сгруппировать 2570">
      <g id="Сгруппировать_2568" data-name="Сгруппировать 2568" transform="translate(68.459 64.35)">
        <path id="Контур_30154" data-name="Контур 30154" d="M92.207,74.933l10.385-.54a9.773,9.773,0,0,0-3.3-6.683c-3.134-2.458-8.5-4.006-16.785-2.863S71.684,72.12,72.744,76.666s5.437,6.179,8.452,7.342a70.424,70.424,0,0,1,7.28,3,2.615,2.615,0,0,1-.2,4.629,8.9,8.9,0,0,1-6.55.59A3.781,3.781,0,0,1,79.1,89.31a15.749,15.749,0,0,1-.219-2.525l-10.4.725a11.083,11.083,0,0,0,1.129,5.64c2.116,3.509,4.206,4.8,8.2,5.623a33.642,33.642,0,0,0,11.9.114A12.852,12.852,0,0,0,98.59,93.28a9.589,9.589,0,0,0,.939-8.607C97.856,80.636,93.2,78.423,88.814,77c-5.15-1.667-5.706-2.611-5.825-3.638s.523-2.658,3.956-2.727,5.069,1.329,5.261,4.294Zm47.817,2.489s3.355-3.554,6.538-4.075,7.354-.487,8.871,2.2,1,5.069.271,8.05-3.217,14.241-3.217,14.241l-9.653-.012c.523-2.254,2.851-12.316,3.336-14.467a4.051,4.051,0,0,0-.078-2.744c-.706-1.286-2.853-.723-3.84-.117a7.386,7.386,0,0,0-2.943,4.182c-.906,2.86-2.651,10.758-3.169,13.136l-9.5-.012,5.311-24.244,8.9.067-.835,3.79ZM116.643,93.977s-3.317,3.552-6.465,4.075-7.273.487-8.771-2.206-.994-5.067-.271-8.048,3.184-14.244,3.184-14.244l9.546.014c-.518,2.254-2.82,12.316-3.3,14.465a4.081,4.081,0,0,0,.076,2.744c.7,1.289,2.82.725,3.8.119a7.376,7.376,0,0,0,2.91-4.182c.9-2.86,2.622-10.758,3.136-13.136l9.389.012-5.252,24.244-8.8-.069Z" transform="translate(-68.458 -64.193)" fill="#c41230" fill-rule="evenodd"/>
        <path id="Контур_30155" data-name="Контур 30155" d="M160.111,64.35,153.3,97.964h8.552L163.1,91.8l4.734-4.039,2.611,10.2h9.883l-5.9-15.834,9.741-8.312-.059-.067h-9.7l-9.256,7.9,3.5-17.3Zm-17.194,8.785c3.309.2,6.329,1.32,8.126,3.167,2.209,2.271,3.079,4.952,2.53,9.529-.1.808-.3,1.743-.411,2.492H135.427s.3,3.148,1.869,4.175a4.473,4.473,0,0,0,4.648.083,6.488,6.488,0,0,0,1.75-1.667l8.714.849a9.4,9.4,0,0,1-1.474,2.313c-2.437,2.922-5.8,4.51-11.607,4.574-7.29.081-13.571-3.214-12.52-12.82a15.192,15.192,0,0,1,2.92-7.256c3.086-4.165,7.936-5.761,13.191-5.44ZM136.3,83.774h8.588s.6-2.844-.994-4.308-6.179-1.431-7.594,4.308Zm.718-18.98H106.346l-1.786,8.217h10.1l-5.276,24.933h10.19l5.166-24.933H135.4Z" transform="translate(-18.727 -64.35)" fill="#1c3f95" fill-rule="evenodd"/>
      </g>
      <path id="Контур_30156" data-name="Контур 30156" d="M147.545,64.559a7.753,7.753,0,0,1,5.492,2.275l0,0a7.766,7.766,0,0,1,0,10.984l0,0a7.766,7.766,0,0,1-10.984,0l0,0a7.76,7.76,0,0,1,0-10.984l0,0a7.745,7.745,0,0,1,5.492-2.275Zm-2.977,11.434h1.484v-3.06h.3a2.465,2.465,0,0,1,.749.083,1.115,1.115,0,0,1,.445.3,9.458,9.458,0,0,1,.782,1.075l1.06,1.6h1.769l-.894-1.429a8.545,8.545,0,0,0-.839-1.189,3.442,3.442,0,0,0-.787-.616,2.311,2.311,0,0,0,1.443-.675,1.957,1.957,0,0,0,.483-1.362,2.112,2.112,0,0,0-.321-1.155,1.664,1.664,0,0,0-.851-.7,5.347,5.347,0,0,0-1.707-.2h-3.115v7.323Zm1.484-4.225h1.1a5.648,5.648,0,0,0,1.327-.09.791.791,0,0,0,.414-.309.965.965,0,0,0,.15-.552.876.876,0,0,0-.2-.6.886.886,0,0,0-.554-.285c-.121-.019-.483-.026-1.082-.026h-1.153v1.862ZM152,67.876a6.308,6.308,0,1,0,1.843,4.455A6.288,6.288,0,0,0,152,67.876Z" transform="translate(98.238 0.288)" fill="#1c3f95" fill-rule="evenodd"/>
      <rect id="Прямоугольник_1252" data-name="Прямоугольник 1252" width="17.07" height="4.871" transform="translate(237.248 84.947)" fill="#1c3f95"/>
    </g>
    <path id="Контур_30157" data-name="Контур 30157" d="M83.491,86.893a3.191,3.191,0,0,1,3.379,4.187l-1.156,6.059H81.682l1.069-5.561q.217-1.136-.894-1.136a1.509,1.509,0,0,0-1.549,1.274l-1.024,5.422H75.25l1.069-5.561q.22-1.136-.894-1.136A1.513,1.513,0,0,0,73.878,91.8l-1.026,5.341H68.82l1.919-9.965h4.032l-.175.916a4.356,4.356,0,0,1,3.031-1.2,2.654,2.654,0,0,1,2.55,1.317,4.668,4.668,0,0,1,3.314-1.317ZM110,97.42a7.744,7.744,0,0,1-3.163-.56,3.647,3.647,0,0,1-1.85-1.893l3.422-1.5a1.709,1.709,0,0,0,1.7,1.138q.785,0,.873-.419c.043-.187-.11-.346-.458-.478s-.778-.269-1.286-.409a10.471,10.471,0,0,1-1.494-.537,2.443,2.443,0,0,1-1.384-2.841,3.083,3.083,0,0,1,.991-1.755,4.446,4.446,0,0,1,1.767-1,7.374,7.374,0,0,1,2.06-.281,6.163,6.163,0,0,1,2.746.578,3.612,3.612,0,0,1,1.724,1.734l-3.228,1.376a1.446,1.446,0,0,0-1.286-.977q-.653-.04-.761.44c-.045.2.053.366.293.5a3.143,3.143,0,0,0,.949.307,8.533,8.533,0,0,1,1.264.35,6.5,6.5,0,0,1,1.221.568,2,2,0,0,1,.818,1.026,2.977,2.977,0,0,1,.075,1.675,3.047,3.047,0,0,1-1.71,2.253,7.319,7.319,0,0,1-3.281.7Zm36.336-10.246L142.038,92.2l2.616,4.942h-4.295l-1.985-4.146-.806,4.146h-4.032l2.681-13.953h4.032l-1.459,7.635,2.921-3.647Zm21.42,10.265a2.065,2.065,0,0,1-1.647-.688,1.87,1.87,0,0,1-.425-1.645,2.549,2.549,0,0,1,1.026-1.6,3.081,3.081,0,0,1,1.917-.647,2.031,2.031,0,0,1,1.634.688,1.884,1.884,0,0,1,.415,1.645,2.58,2.58,0,0,1-.981,1.614,3.03,3.03,0,0,1-1.94.637Zm28.639-8.333a3.489,3.489,0,0,1,1.449-1.573,4.389,4.389,0,0,1,2.235-.558l-.763,3.985a3.841,3.841,0,0,0-2.377.44,2.779,2.779,0,0,0-1.372,2.033l.02-.161-.741,3.867h-4.032l1.917-9.965h4.034l-.37,1.932Zm32.469-1.932h4.032l-1.917,9.965h-4.034l.2-.977a4.241,4.241,0,0,1-3.116,1.258,3.147,3.147,0,0,1-2.648-1.166,4.019,4.019,0,0,1-.491-3.32l1.111-5.76h4.034L225,92.535q-.26,1.334,1.091,1.335a1.658,1.658,0,0,0,1.742-1.435Z" transform="translate(10.639 31.917)" fill="#fff" fill-rule="evenodd"/>
  </g>
</svg>
