<svg xmlns="http://www.w3.org/2000/svg" width="377.717" height="132.107" viewBox="0 0 377.717 132.107">
  <g id="Сгруппировать_2571" data-name="Сгруппировать 2571" transform="translate(-68.459 -64.35)">
    <g id="Сгруппировать_2570" data-name="Сгруппировать 2570" transform="translate(68.459 64.35)">
      <g id="Сгруппировать_2568" data-name="Сгруппировать 2568">
        <path id="Контур_30154" data-name="Контур 30154" d="M116.721,85.74l21.105-1.1s-.338-8.586-6.7-13.582-17.278-8.142-34.112-5.817-22,14.78-19.844,24.019,11.05,12.558,17.177,14.921,10.963,4.035,14.795,6.088,3.353,7.426-.411,9.408c-3.595,1.9-9.166,2.677-13.312,1.2a7.683,7.683,0,0,1-5.334-5.919,32.007,32.007,0,0,1-.444-5.131L68.5,111.3s-.512,6.808,2.3,11.461c4.3,7.132,8.547,9.76,16.67,11.427a68.371,68.371,0,0,0,24.193.232c9.006-1.754,13.964-5.6,18.042-11.393a19.487,19.487,0,0,0,1.909-17.491c-3.4-8.2-12.857-12.7-21.777-15.587-10.466-3.387-11.6-5.305-11.838-7.393s1.063-5.4,8.04-5.542,10.3,2.7,10.693,8.726ZM213.9,90.8s6.818-7.224,13.287-8.282,14.945-.99,18.027,4.479,2.039,10.3.551,16.36-6.537,28.942-6.537,28.942l-19.617-.024c1.063-4.581,5.793-25.029,6.779-29.4.575-2.561.483-4.4-.159-5.576-1.435-2.614-5.8-1.469-7.8-.237-2.45,1.508-4.668,4.353-5.982,8.5-1.841,5.813-5.387,21.864-6.441,26.7l-19.3-.024L197.5,82.961l18.1.135-1.7,7.7Zm-47.516,33.644s-6.74,7.219-13.138,8.282-14.78.99-17.824-4.484-2.02-10.3-.551-16.356,6.47-28.947,6.47-28.947l19.4.029c-1.053,4.581-5.73,25.029-6.7,29.4-.57,2.566-.483,4.407.155,5.576,1.421,2.619,5.73,1.474,7.716.242,2.426-1.508,4.614-4.353,5.914-8.5,1.822-5.813,5.329-21.864,6.373-26.7l19.081.024L182.6,132.28l-17.892-.14Z" transform="translate(-68.458 -63.915)" fill="#c41230" fill-rule="evenodd"/>
        <path id="Контур_30155" data-name="Контур 30155" d="M217.455,64.35l-13.838,68.312H221l2.537-12.529,9.62-8.209,5.305,20.738h20.086l-11.988-32.18,19.8-16.892-.121-.135h-19.7l-18.81,16.056L234.84,64.35ZM182.511,82.2c6.726.411,12.862,2.682,16.515,6.436,4.489,4.614,6.257,10.065,5.141,19.366-.2,1.643-.619,3.542-.836,5.064h-36.04s.618,6.4,3.8,8.485a9.09,9.09,0,0,0,9.446.169,13.185,13.185,0,0,0,3.556-3.387l17.708,1.725a19.1,19.1,0,0,1-3,4.7c-4.953,5.938-11.785,9.166-23.589,9.3-14.814.164-27.58-6.533-25.444-26.053A30.875,30.875,0,0,1,155.7,93.259c6.272-8.465,16.129-11.707,26.807-11.055Zm-13.442,21.622h17.452s1.227-5.779-2.02-8.755-12.558-2.909-15.433,8.755Zm1.459-38.572h-62.34l-3.629,16.7h20.53l-10.722,50.671h20.709l10.5-50.671h21.666Z" transform="translate(69.875 -64.35)" fill="#1c3f95" fill-rule="evenodd"/>
      </g>
      <path id="Контур_30156" data-name="Контур 30156" d="M155.568,64.559a15.756,15.756,0,0,1,11.161,4.624l0,.01a15.783,15.783,0,0,1,0,22.323l0,0a15.783,15.783,0,0,1-22.323,0l0,0a15.771,15.771,0,0,1,0-22.323l0-.01a15.739,15.739,0,0,1,11.161-4.624ZM149.519,87.8h3.015V81.577h.609a5.01,5.01,0,0,1,1.522.169,2.267,2.267,0,0,1,.9.614,19.218,19.218,0,0,1,1.59,2.184l2.155,3.252h3.595l-1.817-2.9a17.367,17.367,0,0,0-1.706-2.416,7,7,0,0,0-1.6-1.251,4.7,4.7,0,0,0,2.933-1.372,3.977,3.977,0,0,0,.981-2.769,4.292,4.292,0,0,0-.652-2.348,3.381,3.381,0,0,0-1.73-1.421,10.867,10.867,0,0,0-3.469-.4h-6.33V87.8Zm3.015-8.586h2.227a11.478,11.478,0,0,0,2.7-.184,1.607,1.607,0,0,0,.841-.628,1.961,1.961,0,0,0,.3-1.121,1.779,1.779,0,0,0-.4-1.218,1.8,1.8,0,0,0-1.126-.58c-.246-.039-.981-.053-2.2-.053h-2.343v3.783Zm12.089-7.91a12.82,12.82,0,1,0,3.745,9.055A12.778,12.778,0,0,0,164.623,71.3Z" transform="translate(204.803 -63.549)" fill="#1c3f95" fill-rule="evenodd"/>
      <rect id="Прямоугольник_1252" data-name="Прямоугольник 1252" width="34.692" height="9.9" transform="translate(343.025 41.858)" fill="#1c3f95"/>
    </g>
    <path id="Контур_30157" data-name="Контур 30157" d="M98.636,90.719a7.141,7.141,0,0,1,5.646,2.23q1.973,2.228,1.22,6.279l-2.35,12.314H94.959l2.172-11.3q.44-2.308-1.816-2.308a3.066,3.066,0,0,0-3.148,2.589l-2.081,11.02h-8.2l2.172-11.3q.447-2.308-1.816-2.308-2.482,0-3.144,2.755l-2.085,10.854H68.82l3.9-20.252h8.194l-.356,1.861a8.853,8.853,0,0,1,6.159-2.432q3.723,0,5.183,2.676a9.486,9.486,0,0,1,6.734-2.676ZM152.5,112.113a15.738,15.738,0,0,1-6.428-1.138,7.412,7.412,0,0,1-3.76-3.847l6.953-3.04a3.473,3.473,0,0,0,3.454,2.312q1.595,0,1.775-.852c.087-.381-.223-.7-.931-.972s-1.58-.546-2.614-.831a21.277,21.277,0,0,1-3.036-1.092,4.965,4.965,0,0,1-2.813-5.775,6.265,6.265,0,0,1,2.014-3.566,9.036,9.036,0,0,1,3.591-2.023,14.986,14.986,0,0,1,4.186-.571,12.525,12.525,0,0,1,5.58,1.175,7.34,7.34,0,0,1,3.5,3.524l-6.561,2.8a2.938,2.938,0,0,0-2.614-1.986q-1.328-.081-1.547.894c-.091.405.108.745.6,1.013a6.388,6.388,0,0,0,1.928.625,17.342,17.342,0,0,1,2.569.711,13.219,13.219,0,0,1,2.482,1.154,4.073,4.073,0,0,1,1.663,2.085,6.051,6.051,0,0,1,.153,3.4,6.192,6.192,0,0,1-3.475,4.579,14.875,14.875,0,0,1-6.668,1.419Zm73.845-20.823L217.619,101.5l5.315,10.043h-8.728l-4.033-8.426-1.638,8.426h-8.194l5.448-28.356h8.195L211.017,98.7l5.936-7.413Zm43.531,20.86a4.2,4.2,0,0,1-3.346-1.4,3.8,3.8,0,0,1-.865-3.342,5.181,5.181,0,0,1,2.085-3.26,6.262,6.262,0,0,1,3.9-1.315,4.127,4.127,0,0,1,3.322,1.4,3.828,3.828,0,0,1,.844,3.342,5.244,5.244,0,0,1-1.994,3.28,6.157,6.157,0,0,1-3.942,1.295Zm58.2-16.935a7.09,7.09,0,0,1,2.945-3.2,8.92,8.92,0,0,1,4.542-1.133l-1.551,8.1a7.806,7.806,0,0,0-4.832.894,5.647,5.647,0,0,0-2.788,4.132l.041-.327-1.506,7.859h-8.194l3.9-20.252h8.2l-.753,3.926Zm65.985-3.926h8.194l-3.9,20.252h-8.2l.4-1.986a8.618,8.618,0,0,1-6.333,2.556,6.4,6.4,0,0,1-5.382-2.37q-1.837-2.37-1-6.747l2.259-11.706h8.2l-2.085,10.9q-.527,2.711,2.217,2.714a3.369,3.369,0,0,0,3.541-2.916Z" transform="translate(21.993 84.307)" fill="#0a0a0a" fill-rule="evenodd"/>
  </g>
</svg>
