<svg xmlns="http://www.w3.org/2000/svg" width="27.874" height="28.742" viewBox="0 0 27.874 28.742">
  <g id="_x33_5_loading" transform="translate(-7.734 -0.001)">
    <g id="Сгруппировать_1634" data-name="Сгруппировать 1634" transform="translate(23.388 1.201)">
      <g id="Сгруппировать_1633" data-name="Сгруппировать 1633">
        <path id="Контур_26007" data-name="Контур 26007" d="M287.853,23.884a1.256,1.256,0,1,1,1.256-1.256A1.257,1.257,0,0,1,287.853,23.884Z" transform="translate(-286.597 -21.372)" fill="#1c3f95" opacity="0.05"/>
      </g>
    </g>
    <path id="Контур_26008" data-name="Контур 26008" d="M459.515,264.551h0a1.256,1.256,0,1,1,1.251,1.375A1.256,1.256,0,0,1,459.516,264.551Z" transform="translate(-426.415 -248.625)" fill="#1c3f95" opacity="0.8"/>
    <path id="Контур_26009" data-name="Контур 26009" d="M452.878,184.571a1.256,1.256,0,1,1,1.539.889,1.273,1.273,0,0,1-.326.043A1.256,1.256,0,0,1,452.878,184.571Z" transform="translate(-420.115 -172.716)" fill="#1c3f95" opacity="0.6"/>
    <path id="Контур_26010" data-name="Контур 26010" d="M418.582,112.048a1.255,1.255,0,1,1,1.022.525A1.256,1.256,0,0,1,418.582,112.048Z" transform="translate(-387.563 -103.882)" fill="#1c3f95" opacity="0.4"/>
    <path id="Контур_26011" data-name="Контур 26011" d="M360.677,54.355a1.256,1.256,0,1,1,1.04,1.958A1.256,1.256,0,0,1,360.677,54.355Z" transform="translate(-332.925 -50.78)" fill="#1c3f95" opacity="0.2"/>
    <g id="Сгруппировать_1635" data-name="Сгруппировать 1635" transform="translate(31.867 19.152)">
      <path id="Контур_26012" data-name="Контур 26012" d="M438.886,343.647a1.256,1.256,0,1,1,1.256-1.256A1.257,1.257,0,0,1,438.886,343.647Z" transform="translate(-437.63 -341.136)" fill="#1c3f95"/>
    </g>
    <path id="Контур_26013" data-name="Контур 26013" d="M31.483,22.8a1.256,1.256,0,0,0-1.684.081A11.461,11.461,0,1,1,16.533,4.541l.4,1.655a.5.5,0,0,0,.845.234l3.842-3.889a.5.5,0,0,0-.2-.831L16.22.026a.5.5,0,0,0-.643.6l.348,1.425A13.973,13.973,0,1,0,31.572,24.665,1.257,1.257,0,0,0,31.483,22.8Z" transform="translate(0 0)" fill="#1c3f95"/>
  </g>
</svg>
