<svg id="elasticity" xmlns="http://www.w3.org/2000/svg" width="110.678" height="87.331" viewBox="0 0 110.678 87.331">
  <path id="Контур_30116" data-name="Контур 30116" d="M1.235,127.831l.095.045a2.162,2.162,0,1,0,1.843-3.91l-.083-.039a2.161,2.161,0,1,0-1.855,3.9Zm0,0" transform="translate(0 -96.973)" fill="#fff"/>
  <path id="Контур_30117" data-name="Контур 30117" d="M109.442,153.446A92.036,92.036,0,0,0,99.005,149.3v-4.365a2.162,2.162,0,0,0-4.323,0v3.032A143.64,143.64,0,0,0,57.5,142.817v-4.356q1.449-.019,2.9-.062c4.6-.144,9.135-.486,13.555-1.013v2.486a2.162,2.162,0,0,0,4.323,0V136.8a112.612,112.612,0,0,0,31.161-8.969,2.162,2.162,0,1,0-1.851-3.907C81.7,136.191,40.137,137.575,10.9,127.145a2.162,2.162,0,1,0-1.452,4.072,122.5,122.5,0,0,0,23.005,5.6v3.057a2.162,2.162,0,0,0,4.323,0v-2.479a157.422,157.422,0,0,0,16.4,1.069v4.355A143.676,143.676,0,0,0,16,147.965v-3.031a2.161,2.161,0,1,0-4.323,0V149.3a91.894,91.894,0,0,0-10.438,4.148,2.162,2.162,0,0,0,1.852,3.907c28.811-13.651,75.691-13.651,104.5,0a2.162,2.162,0,0,0,1.852-3.907Zm0,0" transform="translate(0 -96.974)" fill="#fff"/>
  <path id="Контур_30118" data-name="Контур 30118" d="M224.761,285.441h-8.647a2.162,2.162,0,0,1-2.162-2.162V268.086h-1.269a2.161,2.161,0,0,1-1.773-3.4l7.669-11.015a2.161,2.161,0,0,1,3.548,0l7.67,11.015a2.162,2.162,0,0,1-1.774,3.4h-1.1V283.28a2.162,2.162,0,0,1-2.162,2.162Zm-6.485-4.323H222.6V265.924a2.162,2.162,0,0,1,1.385-2.017l-3.631-5.215-3.6,5.167a2.163,2.163,0,0,1,1.521,2.065Zm0,0" transform="translate(-165.014 -198.11)" fill="#fff"/>
  <path id="Контур_30119" data-name="Контур 30119" d="M220.353,32.7a2.162,2.162,0,0,1-1.774-.927L210.91,20.753a2.162,2.162,0,0,1,1.774-3.4h1.269V2.162A2.162,2.162,0,0,1,216.115,0h8.647a2.162,2.162,0,0,1,2.162,2.162V17.356h1.1a2.162,2.162,0,0,1,1.774,3.4l-7.67,11.015a2.16,2.16,0,0,1-1.774.927Zm-3.6-11.112,3.6,5.167,3.631-5.214a2.164,2.164,0,0,1-1.385-2.018V4.323h-4.323V19.518a2.162,2.162,0,0,1-1.521,2.065Zm0,0" transform="translate(-165.014 0)" fill="#fff"/>
</svg>
