<svg xmlns="http://www.w3.org/2000/svg" width="107.729" height="84.802" viewBox="0 0 107.729 84.802">
  <g id="paper-roll" transform="translate(0 -54.48)">
    <g id="Сгруппировать_2516" data-name="Сгруппировать 2516" transform="translate(5.309 84.098)">
      <g id="Сгруппировать_2515" data-name="Сгруппировать 2515">
        <path id="Контур_30140" data-name="Контур 30140" d="M33.656,195.247a8.423,8.423,0,1,0,8.423,8.423A8.433,8.433,0,0,0,33.656,195.247Zm0,13.691a5.267,5.267,0,1,1,5.267-5.267A5.273,5.273,0,0,1,33.656,208.938Z" transform="translate(-25.233 -195.247)" fill="#fff"/>
      </g>
    </g>
    <g id="Сгруппировать_2518" data-name="Сгруппировать 2518" transform="translate(5.309 59.789)">
      <g id="Сгруппировать_2517" data-name="Сгруппировать 2517">
        <path id="Контур_30141" data-name="Контур 30141" d="M33.656,79.713a8.423,8.423,0,1,0,8.423,8.423A8.433,8.433,0,0,0,33.656,79.713Zm0,13.691a5.267,5.267,0,1,1,5.267-5.267A5.273,5.273,0,0,1,33.656,93.4Z" transform="translate(-25.233 -79.713)" fill="#fff"/>
      </g>
    </g>
    <g id="Сгруппировать_2520" data-name="Сгруппировать 2520" transform="translate(5.309 108.407)">
      <g id="Сгруппировать_2519" data-name="Сгруппировать 2519">
        <path id="Контур_30142" data-name="Контур 30142" d="M33.656,310.78A8.423,8.423,0,1,0,42.08,319.2,8.433,8.433,0,0,0,33.656,310.78Zm0,13.691a5.267,5.267,0,1,1,5.267-5.267A5.273,5.273,0,0,1,33.656,324.471Z" transform="translate(-25.233 -310.78)" fill="#fff"/>
      </g>
    </g>
    <g id="Сгруппировать_2522" data-name="Сгруппировать 2522" transform="translate(0 54.48)">
      <g id="Сгруппировать_2521" data-name="Сгруппировать 2521">
        <path id="Контур_30143" data-name="Контур 30143" d="M104.447,122.329a1.578,1.578,0,0,0-2.873,1.307,33.527,33.527,0,0,1,2.964,12.491H54.1c-.444-9.248-4.793-17.769-12.647-24.73a51.684,51.684,0,0,0-6.909-5.142H83.992a4.85,4.85,0,0,1,2.53.7,40.877,40.877,0,0,1,11.586,10.719,1.578,1.578,0,1,0,2.561-1.844,44.108,44.108,0,0,0-12.5-11.568,7.938,7.938,0,0,0-1.894-.836,13.718,13.718,0,0,0-1.949-23.062A13.729,13.729,0,0,0,77.943,54.48H70.926a1.578,1.578,0,0,0,0,3.156h7.017a10.577,10.577,0,1,1,0,21.153H22.482a13.715,13.715,0,0,0,0-21.153H63.735a1.578,1.578,0,0,0,0-3.156h-50A13.729,13.729,0,0,0,7.352,80.368a13.723,13.723,0,0,0,0,24.309,13.729,13.729,0,0,0,6.381,25.887h18.02a1.578,1.578,0,0,0,0-3.156H22.482a13.715,13.715,0,0,0,0-21.153h5.442a48.179,48.179,0,0,1,11.509,7.568,34.523,34.523,0,0,1,9.706,13.585H38.944a1.578,1.578,0,0,0,0,3.156H50.119a29.483,29.483,0,0,1,.863,7.141,1.578,1.578,0,0,0,1.578,1.578h53.59a1.578,1.578,0,0,0,1.578-1.578A36.87,36.87,0,0,0,104.447,122.329ZM3.156,68.213A10.577,10.577,0,1,1,13.737,78.789h-.005A10.588,10.588,0,0,1,3.156,68.213Zm0,24.309A10.577,10.577,0,1,1,13.733,103.1,10.588,10.588,0,0,1,3.156,92.522Zm21.153,24.309a10.576,10.576,0,1,1-10.576-10.577A10.588,10.588,0,0,1,24.309,116.831ZM22.482,103.1a13.715,13.715,0,0,0,0-21.153H77.943a10.577,10.577,0,1,1,0,21.153Z" transform="translate(0 -54.48)" fill="#fff"/>
      </g>
    </g>
  </g>
</svg>
