<svg xmlns="http://www.w3.org/2000/svg" width="91.738" height="95.745" viewBox="0 0 91.738 95.745">
  <g id="sun-protection" transform="translate(-0.001)">
    <g id="Сгруппировать_2514" data-name="Сгруппировать 2514" transform="translate(0.001)">
      <path id="Контур_30131" data-name="Контур 30131" d="M100.106,176.441a1.87,1.87,0,0,0-1.224-1.755l-21.853-8.044a1.871,1.871,0,0,0-1.292,0l-21.854,8.044a1.87,1.87,0,0,0-1.224,1.755v13.9a32.693,32.693,0,0,0,6.6,19.547,39.205,39.205,0,0,0,16.394,12.654,1.883,1.883,0,0,0,1.449,0A39.213,39.213,0,0,0,93.5,209.882a32.694,32.694,0,0,0,6.6-19.547V176.441Zm-3.74,13.895a28.981,28.981,0,0,1-5.87,17.32,35.331,35.331,0,0,1-14.114,11.12,35.328,35.328,0,0,1-14.114-11.12,28.982,28.982,0,0,1-5.87-17.32V177.745l19.983-7.355,19.983,7.355v12.59Z" transform="translate(-44.815 -135.386)" fill="#fff"/>
      <path id="Контур_30132" data-name="Контур 30132" d="M89.106,88.488a17.128,17.128,0,0,0-33.968-3.128L42.927,80.865a1.871,1.871,0,0,0-1.292,0L11.937,91.8a1.87,1.87,0,0,0-1.224,1.755v19.344A40.632,40.632,0,0,0,18.892,137.2a47.5,47.5,0,0,0,21.783,16.1,4.842,4.842,0,0,0,1.605.464,4.85,4.85,0,0,0,1.606-.464A48.594,48.594,0,0,0,60.26,143.255a1.87,1.87,0,1,0-2.555-2.732,44.866,44.866,0,0,1-15.122,9.267,1.156,1.156,0,0,1-.3.112,1.151,1.151,0,0,1-.3-.112A43.776,43.776,0,0,1,21.9,134.974a36.92,36.92,0,0,1-7.444-22.08V94.854L42.281,84.612,70.108,94.854v18.04a36.113,36.113,0,0,1-3.268,14.994,1.87,1.87,0,0,0,3.407,1.543,39.831,39.831,0,0,0,3.6-16.538v-7.38A17.153,17.153,0,0,0,89.106,88.487ZM73.848,101.747v-8.2a1.87,1.87,0,0,0-1.224-1.755l-13.911-5.12a13.388,13.388,0,1,1,15.135,15.072Z" transform="translate(-10.713 -58.016)" fill="#fff"/>
      <path id="Контур_30133" data-name="Контур 30133" d="M330.2,9.785a1.87,1.87,0,0,0,1.87-1.87V1.87a1.87,1.87,0,1,0-3.74,0V7.915A1.87,1.87,0,0,0,330.2,9.785Z" transform="translate(-268.935)" fill="#fff"/>
      <path id="Контур_30134" data-name="Контур 30134" d="M225,52.266a1.87,1.87,0,1,0,2.645-2.645l-4.275-4.275a1.87,1.87,0,1,0-2.645,2.645Z" transform="translate(-181.005 -36.421)" fill="#fff"/>
      <path id="Контур_30135" data-name="Контур 30135" d="M416.82,238.8a1.87,1.87,0,0,0-2.645,2.645l4.275,4.275a1.87,1.87,0,0,0,2.645-2.645Z" transform="translate(-338.282 -193.698)" fill="#fff"/>
      <path id="Контур_30136" data-name="Контур 30136" d="M415.5,52.814a1.865,1.865,0,0,0,1.322-.548l4.275-4.275a1.87,1.87,0,1,0-2.645-2.645l-4.275,4.275a1.87,1.87,0,0,0,1.323,3.193Z" transform="translate(-338.282 -36.421)" fill="#fff"/>
      <path id="Контур_30137" data-name="Контур 30137" d="M456.874,152.955h-6.045a1.87,1.87,0,1,0,0,3.74h6.045a1.87,1.87,0,1,0,0-3.74Z" transform="translate(-367.006 -124.352)" fill="#fff"/>
      <path id="Контур_30138" data-name="Контур 30138" d="M123.74,271.123a1.87,1.87,0,0,0-2.645,2.645l6.315,6.315a1.889,1.889,0,0,0,2.645,0l13.991-13.991a1.87,1.87,0,0,0-2.645-2.645l-12.668,12.669Z" transform="translate(-100.008 -213.737)" fill="#fff"/>
      <path id="Контур_30139" data-name="Контур 30139" d="M292.081,406.046a1.869,1.869,0,1,0-1.012,2.442A1.887,1.887,0,0,0,292.081,406.046Z" transform="translate(-236.544 -329.179)" fill="#fff"/>
    </g>
  </g>
</svg>
