<svg id="solar-system" xmlns="http://www.w3.org/2000/svg" width="80.32" height="80.32" viewBox="0 0 80.32 80.32">
  <g id="Сгруппировать_2503" data-name="Сгруппировать 2503" transform="translate(0 66.207)">
    <path id="Контур_30120" data-name="Контур 30120" d="M7.057,436.114a7.057,7.057,0,1,1,4.992-2.064A7.038,7.038,0,0,1,7.057,436.114Zm-1.664-5.393a2.353,2.353,0,1,0-.689-1.664A2.356,2.356,0,0,0,5.393,430.721Z" transform="translate(0 -422.001)" fill="#fff"/>
  </g>
  <g id="Сгруппировать_2504" data-name="Сгруппировать 2504" transform="translate(12.968 50.886)">
    <path id="Контур_30121" data-name="Контур 30121" d="M90.892,340.812a8.233,8.233,0,1,1,5.824-2.409A8.211,8.211,0,0,1,90.892,340.812Zm0-11.761a3.528,3.528,0,1,0,2.5,1.032A3.519,3.519,0,0,0,90.892,329.051Z" transform="translate(-82.659 -324.347)" fill="#fff"/>
  </g>
  <g id="Сгруппировать_2505" data-name="Сгруппировать 2505" transform="translate(50.886 12.968)">
    <path id="Контур_30122" data-name="Контур 30122" d="M332.58,99.125a8.233,8.233,0,1,1,5.824-2.409A8.211,8.211,0,0,1,332.58,99.125Zm-2.5-5.737a3.53,3.53,0,1,0,0-4.992A3.534,3.534,0,0,0,330.084,93.388Z" transform="translate(-324.348 -82.659)" fill="#fff"/>
  </g>
  <g id="Сгруппировать_2506" data-name="Сгруппировать 2506" transform="translate(26.298 26.298)">
    <path id="Контур_30123" data-name="Контур 30123" d="M181.483,195.345a13.862,13.862,0,1,1,9.807-4.056A13.826,13.826,0,0,1,181.483,195.345Zm0-23.02A9.158,9.158,0,1,0,187.962,175,9.134,9.134,0,0,0,181.483,172.325Z" transform="translate(-167.621 -167.62)" fill="#fff"/>
  </g>
  <g id="Сгруппировать_2507" data-name="Сгруппировать 2507" transform="translate(66.207 0)">
    <path id="Контур_30124" data-name="Контур 30124" d="M429.057,14.114a7.057,7.057,0,1,1,4.992-2.064A7.038,7.038,0,0,1,429.057,14.114Zm0-9.409a2.351,2.351,0,1,0,1.664.688,2.346,2.346,0,0,0-1.664-.688Z" transform="translate(-422.001 -0.001)" fill="#fff"/>
  </g>
  <g id="Сгруппировать_2508" data-name="Сгруппировать 2508" transform="translate(12.046 12.05)">
    <path id="Контур_30125" data-name="Контур 30125" d="M0,0H4.707V18.827H0Z" transform="translate(0 3.328) rotate(-45)" fill="#fff"/>
  </g>
  <g id="Сгруппировать_2509" data-name="Сгруппировать 2509" transform="translate(37.807 7.465)">
    <path id="Контур_30126" data-name="Контур 30126" d="M240.979,47.58h4.707V61.7h-4.707Z" transform="translate(-240.979 -47.58)" fill="#fff"/>
  </g>
  <g id="Сгруппировать_2510" data-name="Сгруппировать 2510" transform="translate(7.465 37.807)">
    <path id="Контур_30127" data-name="Контур 30127" d="M47.579,240.979H61.7v4.707H47.579Z" transform="translate(-47.579 -240.979)" fill="#fff"/>
  </g>
  <g id="Сгруппировать_2511" data-name="Сгруппировать 2511" transform="translate(51.619 51.632)">
    <path id="Контур_30128" data-name="Контур 30128" d="M0,0H4.707V18.827H0Z" transform="translate(0 3.328) rotate(-45)" fill="#fff"/>
  </g>
  <g id="Сгруппировать_2512" data-name="Сгруппировать 2512" transform="translate(37.807 58.736)">
    <path id="Контур_30129" data-name="Контур 30129" d="M240.979,374.378h4.707V388.5h-4.707Z" transform="translate(-240.979 -374.378)" fill="#fff"/>
  </g>
  <g id="Сгруппировать_2513" data-name="Сгруппировать 2513" transform="translate(58.736 37.807)">
    <path id="Контур_30130" data-name="Контур 30130" d="M374.378,240.979H388.5v4.707h-14.12Z" transform="translate(-374.378 -240.979)" fill="#fff"/>
  </g>
</svg>
